# xmcd
#
# Track frame offsets:
#	150
#	12865
#	26227
#	41437
#	52067
#	62875
#	83827
#	94720
#	111470
#	122597
#	132382
#	143185
#	156107
#	170645
#	182230
#
# Disc length: 2718
#
# Revision: 1
# Processed by: cddbd v1.5.1PL0 Copyright (c) Steve Scherf et al.
# Submitted via: ExactAudioCopy v0.90b4
# Normalized: r0:DSETVAR1,TDELIM( - )
#
DISCID=d50a9c0f
DTITLE=Various Artist - Living The Blues (Blues Classics) (disk 1)
DYEAR=1900
DGENRE=
TTITLE0=Albert King - Born under a bad sign
TTITLE1=Little Milton - Who's creatin' who
TTITLE2=Albert King - Laundromat Blues
TTITLE3=Bobby Bland - These hands (small but mighty)
TTITLE4=Junior Wells - Messin' with the kid
TTITLE5=Magic Sam - Feel so good (I wanna boogie)
TTITLE6=Elmore James - Madison Blues
TTITLE7=B.B. King - Why I sing the Blues
TTITLE8=Jimmy McCracklin - Think
TTITLE9=Little Junior Parker - Man or mouse
TTITLE10=Sugar Pie De Santo and Etta James - In the basement Pt. 1
TTITLE11=Bo Diddley - Ooh Baby
TTITLE12=Koko Taylor - 29 ways (to my baby' door)
TTITLE13=Frank Frost - My back scratcher
TTITLE14=Big Mama Thornton - Ball and chain
EXTD=
EXTT0=
EXTT1=
EXTT2=
EXTT3=
EXTT4=
EXTT5=
EXTT6=
EXTT7=
EXTT8=
EXTT9=
EXTT10=
EXTT11=
EXTT12=
EXTT13=
EXTT14=
PLAYORDER=
